<?xml version="1.0" encoding="UTF-8"?>
<!-- Svg Vector Icons : http://www.onlinewebfonts.com/icon -->
<!DOCTYPE svg PUBLIC "-//W3C//DTD SVG 1.1//EN" "http://www.w3.org/Graphics/SVG/1.1/DTD/svg11.dtd">
<svg version="1.1" xmlns="http://www.w3.org/2000/svg" xmlns:xlink="http://www.w3.org/1999/xlink" x="0px" y="0px" viewBox="0 0 256 256" enable-background="new 0 0 256 256" xml:space="preserve">
<metadata> Svg Vector Icons : http://www.onlinewebfonts.com/icon </metadata>
<g><g><g><path fill="#000000" d="M43,11.1l-1.2,1.2V128c0,113.2,0,115.7,0.9,116.8l0.9,1.1H128h84.4l0.9-1.1c0.9-1.1,0.9-3.2,0.9-94.5c0-74.1-0.1-93.6-0.6-94.2c-0.3-0.4-13.7-10.9-29.7-23.3l-29.1-22.6l-55.4-0.1L44.1,10L43,11.1z M149.9,42.9v25.3l1.2,1.1c0.6,0.7,1.6,1.2,2.2,1.2c0.6,0,12.8-1.7,27.1-3.8c14.3-2,26.1-3.6,26.3-3.5c0.2,0.1,0.3,39.6,0.3,87.8v87.6H128H48.9V128.1V17.6h50.5h50.5V42.9z M179.7,39.1c20.6,16,21.7,16.9,20.4,17.2c-0.8,0.2-10.6,1.7-21.8,3.3c-16.5,2.3-20.5,2.8-20.8,2.2c-0.6-0.9-0.5-40,0-39.8C157.8,22.1,167.8,29.8,179.7,39.1z"/><path fill="#000000" d="M139.6,95.7c-0.6,0.2-1.2,0.9-1.5,1.3c-0.9,1.6-23.9,87.9-23.9,89.5c0,3.1,4,4.7,6,2.3c0.7-0.8,4.3-13.6,12.7-44.9c6.5-24.1,11.8-44.4,11.8-45.1C144.7,96.5,141.9,94.8,139.6,95.7z"/><path fill="#000000" d="M84.7,130.3c-10.6,5.9-19.6,11-19.9,11.5c-0.7,0.9-0.8,3.4-0.2,4.3c0.9,1.4,39.6,22.5,41.2,22.5c1.5,0,3-1.4,3.4-3.1c0.5-2-1-3.3-6.7-6.5c-19.2-10.5-26.9-14.9-26.6-15.2c0.2-0.2,7.5-4.2,16.1-9c8.7-4.8,16-8.9,16.3-9.2c1.2-1.1,1.2-3.4,0.1-4.8C106.5,118.3,105.7,118.6,84.7,130.3z"/><path fill="#000000" d="M150,120.8c-1.2,1.6-1.3,3.1-0.1,4.4c0.4,0.6,6.3,4,13,7.6c13.7,7.5,19.1,10.5,19.6,11c0.2,0.2-6.7,4.2-15.2,8.9c-8.6,4.7-16.2,9.2-17,9.9c-1.1,1.1-1.3,1.6-1,2.9c0.3,1.8,1.9,3.2,3.5,3.2c1.2,0,38.6-20.4,40.5-22.1c1.3-1.2,1.4-3.6,0.2-5c-0.9-1-9.3-5.8-29.1-16.5C153.1,119,151.7,118.6,150,120.8z"/></g></g></g>
</svg>